<?xml version="1.0" encoding="utf-8"?>
<!-- Generator: Adobe Illustrator 24.0.1, SVG Export Plug-In . SVG Version: 6.00 Build 0)  -->
<svg version="1.1" id="Layer_1" xmlns="http://www.w3.org/2000/svg" xmlns:xlink="http://www.w3.org/1999/xlink" x="0px" y="0px"
	 viewBox="0 0 1125 388" style="enable-background:new 0 0 1125 388;" xml:space="preserve">
<style type="text/css">
	.st0{fill:#BE8386;}
</style>
<g>
	<path class="st0" d="M522.74,281.95c-6.11,0-10.76,4.95-10.76,10.76c0,6.11,4.65,11.05,10.76,11.05c6.11,0,10.76-4.95,10.76-11.05
		C533.5,286.9,528.85,281.95,522.74,281.95z"/>
	<path class="st0" d="M549.79,281.95c-5.82,0-10.76,4.95-10.76,10.76c0,6.11,4.95,11.05,10.76,11.05c6.11,0,11.05-4.95,11.05-11.05
		C560.84,286.9,555.9,281.95,549.79,281.95z"/>
	<path class="st0" d="M617.57,265.09h2.85c8.43,0,17.45-4.36,24.43-11.63c6.98-6.98,11.92-17.45,11.92-30.25v-28.94
		c0-7.85,0.87-13.09,9.89-13.09h2.91v-1.02h-34.61v48.57c-0.87,10.76-4.07,18.03-8.72,22.69c-4.95,4.65-11.34,6.4-17.45,6.4h-4.65
		h-20.52v-63.54c0-7.85,1.46-13.09,9.89-13.09h2.91v-1.02h-34.61v77.65h-118.7v-64.13c0-7.86,1.45-13.09,9.89-13.09h2.91v-1.02
		h-45.66c-37.52,0-61.36,16.58-61.36,42.46c0,12.8,6.4,23.26,15.7,30.83c9.31,7.57,21.23,11.93,32.87,12.22h59.92H617.57z
		 M421.31,257.81h-23.85c-8.15,0-15.12-4.07-19.78-10.47c-4.94-6.4-7.85-14.83-7.85-25.01c0-14.25,6.98-24.14,17.16-29.67
		c10.18-5.53,22.98-6.11,34.32-2.62V257.81z"/>
	<path class="st0" d="M618.64,161.21c6.11,0,10.76-4.94,10.76-10.76c0-6.11-4.66-11.05-10.76-11.05s-10.76,4.94-10.76,11.05
		C607.88,156.27,612.54,161.21,618.64,161.21z"/>
	<path class="st0" d="M645.69,161.21c6.11,0,11.05-4.94,11.05-10.76c0-6.11-4.94-11.05-11.05-11.05c-5.82,0-10.76,4.94-10.76,11.05
		C634.93,156.27,639.87,161.21,645.69,161.21z"/>
	<path class="st0" d="M695.7,258.57c0,5.82-0.58,12.51-2.91,19.19c-0.53,1.43-1.18,2.83-1.9,4.22
		c-1.66,2.84-12.82,20.13-38.27,20.13c-2.31,0,27.94,5.22,50.82-14.58c2.38-1.87,4.64-4.04,6.62-6.63c0.03-0.04,0.07-0.07,0.1-0.11
		l-0.01,0c4.17-5.52,7.07-12.8,7.07-22.52v-64.88c0-7.85,1.46-12.79,9.89-12.79h2.91v-1.31H695.7V258.57z"/>
	<path class="st0" d="M756.71,139.15v125.93h21.81V153.36c0-7.85,1.46-13.09,12.8-13.09v-1.12H756.71z"/>
	<path class="st0" d="M343.66,186.83c0.2-0.14,0.37-0.3,0.5-0.49c0.14-0.19,0.24-0.39,0.3-0.61c0.07-0.22,0.1-0.45,0.1-0.68
		c0-0.27-0.05-0.54-0.15-0.8c-0.1-0.26-0.25-0.5-0.45-0.7c-0.2-0.21-0.45-0.37-0.74-0.5c-0.3-0.13-0.65-0.19-1.05-0.19h-4.32v7.35
		h1.28v-2.95h2.4l2.2,2.95h1.62l-2.41-3.05C343.23,187.08,343.46,186.97,343.66,186.83z M342.51,186.04
		c-0.16,0.06-0.35,0.1-0.56,0.1h-2.8v-2.17h2.8c0.21,0,0.4,0.03,0.56,0.09c0.16,0.06,0.3,0.15,0.4,0.25
		c0.11,0.1,0.19,0.22,0.24,0.35c0.05,0.13,0.08,0.26,0.08,0.4c0,0.13-0.03,0.27-0.08,0.4c-0.05,0.13-0.13,0.25-0.24,0.35
		C342.81,185.9,342.67,185.98,342.51,186.04z"/>
	<path class="st0" d="M341.04,179.58c-3.83,0-6.94,3.12-6.94,6.95c0,3.83,3.11,6.95,6.94,6.95c3.83,0,6.95-3.12,6.95-6.95
		C347.98,182.7,344.87,179.58,341.04,179.58z M341.04,192.6c-3.35,0-6.07-2.73-6.07-6.07c0-3.35,2.72-6.07,6.07-6.07
		c3.35,0,6.07,2.73,6.07,6.07C347.11,189.88,344.39,192.6,341.04,192.6z"/>
	<path class="st0" d="M762.38,125.31c-6.07,0-15.03,0.87-20.52,10.4c-0.71,1.15-1.32,0.87-0.87-1.16c0.57-2.55,1.73-7.22,4.91-11.85
		c3.18-4.33,9.81-9.54,16.47-9.54c4.81,0,21.29,0,21.29,0c4.33,0,6.94-0.87,6.94-5.49v-1.73h0.96v19.36H762.38z"/>
</g>
</svg>
